<?xml version="1.0" encoding="UTF-8"?>
<svg version="1.1" xmlns="http://www.w3.org/2000/svg" width="1309" height="431">
<path d="M0 0 C431.97 0 863.94 0 1309 0 C1309 142.23 1309 284.46 1309 431 C877.03 431 445.06 431 0 431 C0 288.77 0 146.54 0 0 Z " fill="#060606" transform="translate(0,0)"/>
<path d="M0 0 C1.9375 1.75 1.9375 1.75 3 4 C2.01250301 13.82640447 -8.95634787 22.21299763 -15.43359375 29.04199219 C-19.73829687 33.59751715 -23.79700102 38.26719301 -27.703125 43.171875 C-30.51011936 46.62810615 -33.43997843 49.96506023 -36.375 53.3125 C-42.51220487 60.34768046 -48.35355631 67.56610333 -54 75 C-54.43489746 75.57121582 -54.86979492 76.14243164 -55.31787109 76.73095703 C-68.22835363 93.78082419 -79.6948744 111.86220966 -91 130 C-74.28954679 121.84476552 -58.77332878 113.06179563 -43.609375 102.26171875 C-26.29257983 89.9374389 -26.29257983 89.9374389 -17 91 C-14.9375 92.1875 -14.9375 92.1875 -14 94 C-14.26373035 96.94898478 -14.5972259 98.55400137 -16.6015625 100.7734375 C-17.26929688 101.30195313 -17.93703125 101.83046875 -18.625 102.375 C-21.31325145 104.57965066 -23.80840846 106.77837993 -26.1875 109.3125 C-40.04051119 123.25869288 -57.93871962 132.45241716 -75.125 141.5625 C-97.56665677 153.45924156 -116.79236098 165.41713332 -130.9375 187.125 C-131.85341919 188.5171875 -131.85341919 188.5171875 -132.7878418 189.9375 C-137.73837008 197.50511979 -142.45372039 205.18394405 -147 213 C-149.47510081 217.25146162 -151.95259503 221.50150195 -154.43319702 225.74975586 C-155.52899637 227.63001191 -156.61985516 229.51306453 -157.71020508 231.39648438 C-174.70450673 260.63820628 -174.70450673 260.63820628 -185 264 C-188.83285784 264.38559938 -191.70370734 263.95299482 -194.84375 261.64453125 C-197.8195672 258.57747437 -198.91555108 256.42928202 -199.75 252.1875 C-198.9485292 243.12739534 -191.57562328 236.23228827 -185.6953125 229.95703125 C-176.38183608 219.89726104 -168.55618563 208.41469603 -160.61865234 197.27148438 C-159.04861907 195.06822803 -157.4719049 192.86987931 -155.89453125 190.671875 C-148.95864266 180.96921727 -142.38847525 171.07015983 -136 161 C-135.53658203 160.27119629 -135.07316406 159.54239258 -134.59570312 158.79150391 C-128.54120069 149.2633449 -122.54917272 139.69587463 -116.5625 130.125 C-115.93384033 129.12009521 -115.30518066 128.11519043 -114.6574707 127.07983398 C-111.54212 122.09311081 -108.44088556 117.09845543 -105.3671875 112.0859375 C-104.7889624 111.14476074 -104.2107373 110.20358398 -103.61499023 109.23388672 C-102.53551576 107.47461511 -101.45924325 105.71337269 -100.38696289 103.94970703 C-99.89703857 103.15161621 -99.40711426 102.35352539 -98.90234375 101.53125 C-98.48460693 100.84611328 -98.06687012 100.16097656 -97.63647461 99.45507812 C-96 97 -96 97 -94.50996399 95.38700867 C-89.20437785 89.3490571 -89.13566165 84.02806521 -89.23828125 76.20703125 C-89.23491257 74.98400803 -89.23154388 73.7609848 -89.22807312 72.50090027 C-89.22837126 69.91974677 -89.24355319 67.33855724 -89.27270508 64.75756836 C-89.31220431 60.84181334 -89.29344536 56.92947918 -89.26757812 53.01367188 C-89.27514291 50.49477871 -89.28610205 47.975893 -89.30078125 45.45703125 C-89.29379715 44.30241898 -89.28681305 43.1478067 -89.27961731 41.95820618 C-89.40703906 34.48019479 -90.88370653 28.69620226 -93.93083191 21.8589325 C-95.01426784 18.96184811 -95.37815233 17.05730972 -95 14 C-93 12 -93 12 -89.25 11.625 C-84.76051811 11.78736824 -82.35112438 12.87228391 -79 16 C-71.84339726 26.50692369 -71.72260695 39.46664677 -70.875 51.75 C-70.78863281 52.9359375 -70.70226562 54.121875 -70.61328125 55.34375 C-70.40387896 58.22884815 -70.19952917 61.11420517 -70 64 C-65.46636858 59.03988951 -61.00779391 54.06450328 -56.8125 48.8125 C-51.94639816 42.79591874 -46.67025326 37.20621316 -41.36328125 31.58203125 C-38.58804545 28.63930427 -35.87351604 25.64970808 -33.1875 22.625 C-10.16726429 -3.02854681 -10.16726429 -3.02854681 0 0 Z " fill="#FCFCFC" transform="translate(412,105)"/>
<path d="M0 0 C7.26 0 14.52 0 22 0 C26.50799758 25.92617966 30.26718468 51.95281273 34 78 C37.19074682 60.88011263 39.66778076 43.64493163 42.24414062 26.42456055 C42.6474534 23.72994088 43.05256138 21.03560223 43.45956421 18.34153748 C43.83980202 15.82347567 44.21719729 13.30498265 44.59146118 10.786026 C44.76188934 9.65982346 44.9323175 8.53362091 45.10791016 7.37329102 C45.33083237 5.88467308 45.33083237 5.88467308 45.55825806 4.36598206 C46 2 46 2 47 0 C53.27 0 59.54 0 66 0 C68.74984241 12.03056054 70.65763865 24.11614821 72.5 36.3125 C73.09118171 40.20482233 73.68499203 44.09673334 74.28125 47.98828125 C74.42433594 48.92310333 74.56742188 49.85792542 74.71484375 50.82107544 C76.01437139 59.2376397 77.47082106 67.62242399 79 76 C80.50841834 74.49158166 80.39482862 72.97400709 80.69262695 70.87695312 C80.81991684 69.9959494 80.94720673 69.11494568 81.07835388 68.20724487 C81.21362991 67.24166656 81.34890594 66.27608826 81.48828125 65.28125 C81.63157364 64.2835257 81.77486603 63.28580139 81.92250061 62.25784302 C82.22981585 60.11625321 82.53534848 57.97440701 82.83929443 55.83233643 C83.62181687 50.3217757 84.4187604 44.81330272 85.21484375 39.3046875 C85.44769073 37.69054459 85.44769073 37.69054459 85.6852417 36.04379272 C86.86318042 27.89561279 88.07964335 19.75538994 89.375 11.625 C89.53009033 10.63693359 89.68518066 9.64886719 89.8449707 8.63085938 C89.98636475 7.75494141 90.12775879 6.87902344 90.2734375 5.9765625 C90.39122559 5.24518066 90.50901367 4.51379883 90.63037109 3.76025391 C91 2 91 2 92 0 C98.6 0 105.2 0 112 0 C111.4162019 6.4847969 110.59765573 12.81101358 109.37353516 19.203125 C109.13182838 20.49330788 109.13182838 20.49330788 108.88523865 21.80955505 C108.35707133 24.62378459 107.82303601 27.43686692 107.2890625 30.25 C106.9161123 32.23274942 106.54359199 34.21557975 106.17147827 36.19848633 C105.19313407 41.40687202 104.21006509 46.61435355 103.22564697 51.82159424 C101.65658367 60.1245077 100.09380509 68.42860292 98.53278732 76.73303223 C97.99241514 79.60329644 97.44946152 82.47306278 96.90615845 85.34277344 C96.56542253 87.14900665 96.22511111 88.95532 95.88525391 90.76171875 C95.72340418 91.62189606 95.56155445 92.48207336 95.39480019 93.36831665 C94.14159325 100.0944831 93.00322951 106.8368834 91.95195961 113.59757996 C91.10660793 118.89339207 91.10660793 118.89339207 90 120 C88.43827255 120.08685603 86.87270656 120.10702219 85.30859375 120.09765625 C84.36435547 120.09443359 83.42011719 120.09121094 82.44726562 120.08789062 C81.45404297 120.07951172 80.46082031 120.07113281 79.4375 120.0625 C78.44041016 120.05798828 77.44332031 120.05347656 76.41601562 120.04882812 C73.94395151 120.03700007 71.47200482 120.02051849 69 120 C68.86298676 119.1403363 68.86298676 119.1403363 68.72320557 118.26330566 C67.75040272 112.16072674 66.77639253 106.0583413 65.80175781 99.95605469 C65.44078671 97.6950339 65.08009821 95.43396797 64.71972656 93.17285156 C62.21159053 77.43745064 59.64222388 61.71345769 57 46 C55.12182516 53.97649355 53.75100658 62.01800648 52.3984375 70.09765625 C52.15487706 71.54214355 51.91110933 72.98659591 51.66714478 74.43101501 C51.03053094 78.20350237 50.39670492 81.97645278 49.76348877 85.74951172 C49.1148657 89.6112902 48.46356509 93.47261699 47.8125 97.33398438 C46.53906837 104.88888762 45.26883429 112.44432302 44 120 C37.07 120 30.14 120 23 120 C20.75017014 113.25051042 20.75017014 113.25051042 20.13720703 109.85229492 C19.99546555 109.07915955 19.85372406 108.30602417 19.70768738 107.50946045 C19.55922867 106.67489319 19.41076996 105.84032593 19.2578125 104.98046875 C19.09328079 104.07685608 18.92874908 103.17324341 18.75923157 102.24224854 C18.21057528 99.22469454 17.66789378 96.20609558 17.125 93.1875 C16.53680957 89.94540743 15.9470096 86.70360989 15.35722351 83.46180725 C14.93313595 81.12998128 14.50957704 78.7980591 14.08650208 76.46604919 C11.50806177 62.26082897 8.88139468 48.064529 6.25653076 33.86782837 C5.4408053 29.45585294 4.62582514 25.04374007 3.81103516 20.6315918 C3.55486618 19.24444568 3.29869655 17.85729968 3.04252625 16.47015381 C2.85903405 15.47655476 2.85903405 15.47655476 2.67183495 14.462883 C1.78145624 9.64187897 0.89070097 4.8209445 0 0 Z " fill="#FCFCFC" transform="translate(531,178)"/>
<path d="M0 0 C6.93 0 13.86 0 21 0 C24.37322303 18.682466 27.21281387 37.42380363 29.98965454 56.20220947 C30.96724084 62.80553474 31.973893 69.40402335 33 76 C35.26698947 70.21026524 35.97642934 64.28152708 36.83984375 58.1640625 C37.00746719 57.01191254 37.17509064 55.85976257 37.34779358 54.67269897 C37.8828906 50.99086211 38.41076572 47.30804183 38.9375 43.625 C41.03461322 29.02567923 43.12598582 14.46917484 46 0 C52.27 0 58.54 0 65 0 C68.09687972 17.76862192 71.13737382 35.54505033 73.97381592 53.35736084 C74.24044946 55.03062525 74.50838585 56.7036826 74.77764893 58.37652588 C75.15532999 60.72695223 75.52770717 63.07815605 75.8984375 65.4296875 C76.01064636 66.12406921 76.12285522 66.81845093 76.23846436 67.53387451 C76.78684251 71.05681855 77.12112446 74.43413013 77 78 C77.66 78 78.32 78 79 78 C78.97131836 77.05374756 78.94263672 76.10749512 78.91308594 75.13256836 C78.91761298 70.3114913 79.66128249 65.63544012 80.390625 60.87890625 C80.53537766 59.90908813 80.68013031 58.93927002 80.82926941 57.94006348 C81.29759232 54.81339239 81.77352136 51.6879377 82.25 48.5625 C82.57192438 46.42703638 82.89362017 44.29153828 83.21508789 42.15600586 C85.3420313 28.07959222 87.58111032 14.02956014 90 0 C96.6 0 103.2 0 110 0 C109.31520912 10.59469321 107.31518461 20.89236192 105.375 31.3125 C105.0141221 33.27067 104.65369576 35.22892327 104.29370117 37.18725586 C103.55805543 41.1845894 102.81960847 45.18138905 102.07861328 49.17773438 C101.076858 54.5810266 100.0820402 59.98557038 99.08984375 65.390625 C95.7460422 83.59733965 92.37570817 101.79917713 89 120 C82.07 120 75.14 120 68 120 C67.55269531 117.20917969 67.10539063 114.41835938 66.64453125 111.54296875 C62.58731318 86.23688344 62.58731318 86.23688344 58.125 61 C57.92237549 59.90582764 57.71975098 58.81165527 57.51098633 57.68432617 C56.49899211 52.28069444 56.49899211 52.28069444 55 47 C51.04 71.09 47.08 95.18 43 120 C36.07 120 29.14 120 22 120 C19.48135503 109.51076516 17.4417365 98.9829898 15.5 88.375 C14.80314022 84.5883467 14.10461689 80.8020006 13.40625 77.015625 C13.2203833 76.00617828 13.0345166 74.99673157 12.84301758 73.95669556 C11.38624352 66.05679583 9.90436937 58.16173705 8.41477966 50.26797104 C7.65193544 46.22312878 6.8915671 42.17782013 6.13105011 38.13253975 C5.50457378 34.80153274 4.87646669 31.47084889 4.24487305 28.14080811 C3.53411639 24.38890755 2.82897945 20.63598969 2.125 16.8828125 C1.90976685 15.75445984 1.69453369 14.62610718 1.47277832 13.46356201 C1.18074524 11.89822723 1.18074524 11.89822723 0.8828125 10.30126953 C0.71152832 9.39394073 0.54024414 8.48661194 0.36376953 7.55178833 C0 5 0 5 0 0 Z " fill="#FCFCFC" transform="translate(774,178)"/>
<path d="M0 0 C47.69112091 0 47.69112091 0 56.40234375 8.17578125 C65.51633355 18.58221948 66.30844889 29.58029577 66.265625 42.87109375 C66.26753845 44.18860123 66.2694519 45.5061087 66.27142334 46.86354065 C66.27435509 49.63962549 66.270141 52.41558074 66.26074219 55.19165039 C66.24935993 58.7227917 66.25591165 62.25362844 66.26788712 65.78475857 C66.27691706 69.18856033 66.27056486 72.59228338 66.265625 75.99609375 C66.26967346 77.25054794 66.27372192 78.50500214 66.27789307 79.79747009 C66.21016319 92.59782253 64.57975458 103.00138572 55.875 112.8125 C40.13602318 125.75907771 19.10862819 120 0 120 C0 80.4 0 40.8 0 0 Z " fill="#FDFDFD" transform="translate(1023,178)"/>
<path d="M0 0 C6.93 0 13.86 0 21 0 C25.49964826 8.99929653 25.49964826 8.99929653 26.93530273 13.01635742 C27.25921494 13.91476852 27.58312714 14.81317963 27.91685486 15.73881531 C28.25237869 16.68481094 28.58790253 17.63080658 28.93359375 18.60546875 C29.29340836 19.60653152 29.65322296 20.6075943 30.02394104 21.63899231 C31.16647449 24.8201733 32.30230699 28.00369308 33.4375 31.1875 C34.57033803 34.35300356 35.70462321 37.51798011 36.84034729 40.68244934 C37.5435776 42.64308649 38.24500922 44.6043702 38.94419861 46.56645203 C41.51828125 53.76122563 44.25452812 60.86177312 47 68 C47.33 45.56 47.66 23.12 48 0 C54.6 0 61.2 0 68 0 C68 39.6 68 79.2 68 120 C61.07 120 54.14 120 47 120 C42.59597147 110.75889375 39.108839 101.32038632 35.6875 91.6875 C35.15213646 90.18929448 34.61633067 88.69124692 34.08007812 87.19335938 C33.27280273 84.93782227 33.27280273 84.93782227 32.44921875 82.63671875 C28.6699187 72.07779097 24.83261554 61.53969273 21 51 C20.67 73.77 20.34 96.54 20 120 C13.4 120 6.8 120 0 120 C0 80.4 0 40.8 0 0 Z " fill="#FEFEFE" transform="translate(937,178)"/>
<path d="M0 0 C8.49241086 5.11207114 14.45614844 12.35212057 17 22 C17.13519885 24.67693715 17.19162022 27.20960151 17.125 29.875 C17.08375 32.22625 17.0425 34.5775 17 37 C10.4 37 3.8 37 -3 37 C-3.0825 35.14375 -3.165 33.2875 -3.25 31.375 C-3.69769807 25.94506195 -4.44059413 23.08284791 -8 19 C-8.44988281 18.4740625 -8.89976562 17.948125 -9.36328125 17.40625 C-12.39435658 14.8019848 -16.12883206 14.7687869 -20 15 C-23.84676353 16.95835234 -25.60966175 18.41449262 -28 22 C-28.31969101 25.21462976 -28.31969101 25.21462976 -28.29052734 28.9465332 C-28.29724457 29.64934418 -28.30396179 30.35215515 -28.31088257 31.07626343 C-28.32988949 33.40117453 -28.33378836 35.72579726 -28.3359375 38.05078125 C-28.34236461 39.66879902 -28.34909291 41.28681561 -28.35610962 42.90483093 C-28.36808985 46.29847914 -28.37178979 49.6920255 -28.37060547 53.08569336 C-28.37040247 57.42693069 -28.3976805 61.76751194 -28.43214989 66.10859394 C-28.45442956 69.45184811 -28.45844266 72.79494481 -28.45738602 76.13826561 C-28.4597413 77.73820439 -28.4685608 79.33814755 -28.48405075 80.93801308 C-28.50372919 83.18089787 -28.49786642 85.42237392 -28.48583984 87.6652832 C-28.4901149 89.57698051 -28.4901149 89.57698051 -28.49447632 91.52729797 C-27.83306702 96.17236858 -25.95460736 99.51719441 -22.1875 102.375 C-17.47796125 103.7205825 -14.10875816 103.57570135 -9.75 101.3125 C-6.28159882 98.39588992 -4.29986268 95.85792951 -3.56762695 91.32104492 C-3.52835083 89.91495972 -3.52835083 89.91495972 -3.48828125 88.48046875 C-3.45283203 87.45888672 -3.41738281 86.43730469 -3.38085938 85.38476562 C-3.35830078 84.32966797 -3.33574219 83.27457031 -3.3125 82.1875 C-3.27833984 81.11306641 -3.24417969 80.03863281 -3.20898438 78.93164062 C-3.12673357 76.28786467 -3.05750791 73.64441079 -3 71 C-3.85464844 71.01160156 -4.70929687 71.02320313 -5.58984375 71.03515625 C-6.69457031 71.04417969 -7.79929687 71.05320312 -8.9375 71.0625 C-10.03964844 71.07410156 -11.14179687 71.08570313 -12.27734375 71.09765625 C-15 71 -15 71 -16 70 C-16 64.72 -16 59.44 -16 54 C-5.11 54 5.78 54 17 54 C17.09227599 59.94154821 17.17177872 65.88056942 17.21972656 71.82226562 C17.23973216 73.83960435 17.2669456 75.8568859 17.30175781 77.87402344 C17.35076577 80.78855573 17.37307964 83.70231559 17.390625 86.6171875 C17.42159271 87.95062698 17.42159271 87.95062698 17.45318604 89.31100464 C17.45582709 96.82998622 15.55562265 103.35628474 11.2109375 109.55078125 C5.01757494 115.49377383 -2.19027666 120.46062918 -11 121 C-11.79921875 121.05027344 -12.5984375 121.10054688 -13.421875 121.15234375 C-23.63409647 121.51294479 -32.09561005 119.66878286 -39.9921875 112.9609375 C-46.38771527 106.71472167 -50.17144074 100.65275349 -50.29327393 91.4669342 C-50.29236755 90.7826384 -50.29146118 90.09834259 -50.29052734 89.39331055 C-50.29724457 88.65586609 -50.30396179 87.91842163 -50.31088257 87.15863037 C-50.32979072 84.73459019 -50.33378319 82.31082797 -50.3359375 79.88671875 C-50.34237077 78.19049468 -50.34909953 76.49427171 -50.35610962 74.79804993 C-50.36806468 71.24660675 -50.37179231 67.6952607 -50.37060547 64.14379883 C-50.37040246 59.61126337 -50.39769339 55.07935618 -50.43214989 50.54696941 C-50.45447803 47.04404384 -50.45844119 43.54126801 -50.45738602 40.03827858 C-50.45973351 38.36825205 -50.46850864 36.69822086 -50.48405075 35.028265 C-50.62502341 18.31582127 -50.62502341 18.31582127 -46 11 C-45.46375 10.13375 -44.9275 9.2675 -44.375 8.375 C-32.75090906 -3.24909094 -15.27642789 -7.49158156 0 0 Z " fill="#FDFDFD" transform="translate(744,179)"/>
<path d="M0 0 C8.6775325 4.35623779 14.85282206 11.28893493 17.91015625 20.4609375 C18.71753951 29.89805655 18.12436541 38.0812944 12.14453125 45.71484375 C2.70685445 55.80275419 -9.70588255 58.2249137 -23.12792969 58.71801758 C-28.65773139 58.82839511 -34.18478917 58.77574783 -39.71484375 58.7109375 C-41.71858228 58.69763627 -43.72232612 58.68511256 -45.72607422 58.67333984 C-127.9541641 58.08216565 -127.9541641 58.08216565 -144.5234375 49.1328125 C-146.86515813 46.63341991 -147.22385243 43.72053351 -148.08984375 40.4609375 C-147.24074432 40.53076843 -146.3916449 40.60059937 -145.51681519 40.67254639 C-132.25703882 41.63990367 -119.01246779 41.64350105 -105.72265625 41.6640625 C-104.48106625 41.66688988 -103.23947624 41.66971725 -101.9602623 41.67263031 C-96.07632155 41.68599642 -90.19239626 41.69593465 -84.30844128 41.6998322 C-77.56489382 41.70432767 -70.82154754 41.72197985 -64.07806122 41.7508328 C-58.19087734 41.77513325 -52.30376023 41.78277965 -46.41653061 41.78450775 C-43.92955292 41.78752331 -41.44257586 41.79551451 -38.95563126 41.80869293 C-35.47954309 41.825819 -32.0039457 41.82385843 -28.52783203 41.81738281 C-27.51358658 41.8265976 -26.49934113 41.83581238 -25.45436096 41.8453064 C-19.06455178 41.8081702 -12.94834441 41.2011892 -7.08984375 38.4609375 C-3.94012921 35.22163551 -2.88342977 31.86610059 -2.65234375 27.3984375 C-3.20790053 22.39842646 -4.52259271 19.02818854 -8.08984375 15.4609375 C-14.05967746 13.55059071 -20.14372681 12.89843011 -26.36572266 12.33398438 C-30.64799766 11.88201829 -33.57808315 10.96349311 -37.08984375 8.4609375 C-36.67549468 3.62686498 -34.71190421 1.56556076 -31.08984375 -1.5390625 C-21.79006027 -4.63899033 -9.06063181 -3.2302126 0 0 Z " fill="#FAFAFA" transform="translate(252.08984375,156.5390625)"/>
<path d="M0 0 C21.78 0 43.56 0 66 0 C66 5.61 66 11.22 66 17 C58.74 17.33 51.48 17.66 44 18 C43.67 51.66 43.34 85.32 43 120 C36.07 120 29.14 120 22 120 C22 86.01 22 52.02 22 17 C15.07 17 8.14 17 1 17 C0.67 16.67 0.34 16.34 0 16 C0 10.72 0 5.44 0 0 Z " fill="#FBFCFB" transform="translate(456,178)"/>
<path d="M0 0 C6.93 0 13.86 0 21 0 C21 39.6 21 79.2 21 120 C14.07 120 7.14 120 0 120 C0 80.4 0 40.8 0 0 Z " fill="#FCFCFC" transform="translate(898,178)"/>
<path d="M0 0 C6.93 0 13.86 0 21 0 C21 39.6 21 79.2 21 120 C14.07 120 7.14 120 0 120 C0 80.4 0 40.8 0 0 Z " fill="#FCFCFC" transform="translate(656,178)"/>
<path d="M0 0 C5.25733316 0.10690749 8.35807676 0.58037485 12.25 4.375 C17.36679042 10.99067791 16.81859177 17.77130468 16.74609375 25.84765625 C16.74624895 27.25817438 16.7477414 28.66869294 16.75050354 30.07920837 C16.75188306 33.0254111 16.73940409 35.97112434 16.71655273 38.91723633 C16.68814257 42.68214287 16.69091819 46.44623869 16.70364285 50.21120548 C16.7106168 53.12042596 16.70279176 56.02946098 16.69038582 58.93865776 C16.68588978 60.32644374 16.68551828 61.71424974 16.68945122 63.10203743 C16.69238067 65.04470246 16.67363491 66.9873631 16.65405273 68.92993164 C16.64864975 70.03244766 16.64324677 71.13496368 16.63768005 72.27088928 C15.94821061 77.79139384 13.46796778 81.81608969 9.25 85.375 C6.38177682 86.33107439 4.30755254 86.60192707 1.3125 86.6875 C0.03052734 86.74357422 0.03052734 86.74357422 -1.27734375 86.80078125 C-4.69179575 86.21282664 -5.65442861 85.12180871 -7.75 82.375 C-8.13455614 79.64940526 -8.27771573 77.33081917 -8.23583984 74.60888672 C-8.23963654 73.83122955 -8.24343323 73.05357239 -8.24734497 72.25234985 C-8.25474502 69.68605006 -8.2333804 67.12088635 -8.2109375 64.5546875 C-8.2085531 62.77157728 -8.20764775 60.98846452 -8.2081604 59.20535278 C-8.20503358 55.4712142 -8.18847469 51.7374599 -8.16162109 48.00341797 C-8.12759207 43.21021655 -8.11999394 38.41743641 -8.12151146 33.62412834 C-8.12096848 29.94389809 -8.11001372 26.26376045 -8.09550858 22.58356094 C-8.08913276 20.81567206 -8.08519986 19.04777266 -8.08372116 17.27987289 C-8.07939919 14.81384013 -8.06192396 12.34826017 -8.04052734 9.88232422 C-8.04143372 9.14773987 -8.04234009 8.41315552 -8.04327393 7.65631104 C-7.95982053 1.10034244 -6.37028939 0.07923246 0 0 Z " fill="#060606" transform="translate(1051.75,194.625)"/>
<path d="M0 0 C2.3582262 -0.00788928 4.71636282 -0.02136266 7.07455444 -0.03624344 C10.83682159 -0.05881329 14.59878582 -0.06511128 18.36111259 -0.05897141 C19.76462045 -0.05877507 21.16813869 -0.06348721 22.5716114 -0.07342148 C24.5145297 -0.0858197 26.45754755 -0.07720747 28.40048218 -0.06770706 C30.04271507 -0.0686512 30.04271507 -0.0686512 31.71812439 -0.06961441 C36.23923178 0.47995294 39.57972144 2.08760642 42.79672241 5.30460739 C42.64905231 8.18417437 42.26941573 9.7756258 40.33401489 11.94149399 C36.42778635 14.04004294 32.69253707 13.71381402 28.32504272 13.67692184 C27.36504868 13.68057251 26.40505463 13.68422318 25.41596985 13.68798447 C22.23541668 13.69610188 19.05537159 13.68245771 15.87484741 13.66788864 C13.65444947 13.66736967 11.43405106 13.66788881 9.21365356 13.66939926 C4.54970473 13.66930945 -0.1140716 13.65887142 -4.77798462 13.64078903 C-10.71544127 13.61826002 -16.65264237 13.61752817 -22.59012985 13.62430668 C-27.18364676 13.62767495 -31.777107 13.62096063 -36.3706131 13.61117744 C-38.55676221 13.60736224 -40.74291767 13.60616172 -42.92906952 13.60776329 C-75.90989525 13.61179799 -75.90989525 13.61179799 -83.20327759 9.30460739 C-81.83344256 6.14344964 -81.21421379 5.31189819 -78.20327759 3.30460739 C-53.95526819 -2.99935471 -24.94771706 0.06398277 0 0 Z " fill="#F9F9F9" transform="translate(214.20327758789063,238.69539260864258)"/>
<path d="M0 0 C1.11402191 -0.0004985 2.22804382 -0.00099701 3.37582397 -0.00151062 C5.72420033 0.0008244 8.07257945 0.01051907 10.42089844 0.02709961 C14.0178051 0.05074422 17.61397258 0.04764937 21.2109375 0.04101562 C23.49479609 0.04659099 25.77865156 0.05369998 28.0625 0.0625 C29.13859528 0.06158859 30.21469055 0.06067719 31.32339478 0.05973816 C32.82547989 0.07403618 32.82547989 0.07403618 34.35791016 0.08862305 C35.23694 0.09323044 36.11596985 0.09783783 37.02163696 0.10258484 C39.62812404 0.38847413 41.20177359 0.94290723 43.3984375 2.36328125 C45.5371636 5.5713704 45.87574712 6.64026622 45.3984375 10.36328125 C42.24921866 12.46276047 41.50962318 12.61488264 37.91796875 12.62207031 C36.56010254 12.63152679 36.56010254 12.63152679 35.17480469 12.64117432 C34.19672852 12.63712585 33.21865234 12.63307739 32.2109375 12.62890625 C31.19805664 12.6308197 30.18517578 12.63273315 29.14160156 12.63470459 C26.99299878 12.63606687 24.84438779 12.63236746 22.69580078 12.62402344 C19.43893391 12.61341318 16.1826299 12.62387122 12.92578125 12.63671875 C10.83333213 12.63539543 8.74088336 12.63282948 6.6484375 12.62890625 C5.68655518 12.63295471 4.72467285 12.63700317 3.73364258 12.64117432 C-12.34816582 12.53221237 -12.34816582 12.53221237 -18.6015625 8.36328125 C-18.4765625 6.05078125 -18.4765625 6.05078125 -17.6015625 3.36328125 C-12.1161607 -0.51076221 -6.43779643 -0.05530587 0 0 Z " fill="#FCFCFC" transform="translate(184.6015625,274.63671875)"/>
<path d="M0 0 C1.9375 0.6875 1.9375 0.6875 4 2 C4.75 4.625 4.75 4.625 5 7 C6.98 7 8.96 7 11 7 C11.33 7.99 11.66 8.98 12 10 C11.34 10.763125 10.68 11.52625 10 12.3125 C7.62744378 14.88740533 7.62744378 14.88740533 8.25 18.3125 C8.4975 19.199375 8.745 20.08625 9 21 C6.22042794 22.02947113 5.24350934 22.10096729 2.4375 20.9375 C1.633125 20.628125 0.82875 20.31875 0 20 C-0.99 20.66 -1.98 21.32 -3 22 C-5.1875 21.625 -5.1875 21.625 -7 21 C-6.7525 19.9275 -6.505 18.855 -6.25 17.75 C-5.57571378 13.97254504 -5.57571378 13.97254504 -7.9375 11.5625 C-8.618125 11.046875 -9.29875 10.53125 -10 10 C-9.67 9.01 -9.34 8.02 -9 7 C-7.02 7 -5.04 7 -3 7 C-2.690625 6.030625 -2.38125 5.06125 -2.0625 4.0625 C-1 1 -1 1 0 0 Z " fill="#FFF100" transform="translate(1146,274)"/>
<path d="M0 0 C1.32 0.33 2.64 0.66 4 1 C4.33 2.32 4.66 3.64 5 5 C6.98 5 8.96 5 11 5 C11.66 6.32 12.32 7.64 13 9 C12.319375 9.5775 11.63875 10.155 10.9375 10.75 C10.298125 11.4925 9.65875 12.235 9 13 C9.23769206 15.1182079 9.23769206 15.1182079 10 17 C9.67 17.66 9.34 18.32 9 19 C6.23723823 18.47731534 3.6739124 17.89130413 1 17 C0.01 17.66 -0.98 18.32 -2 19 C-3.32 19 -4.64 19 -6 19 C-5.9175 17.906875 -5.835 16.81375 -5.75 15.6875 C-5.58896039 11.96557142 -5.58896039 11.96557142 -8 10.0625 C-8.66 9.711875 -9.32 9.36125 -10 9 C-9.34 7.68 -8.68 6.36 -8 5 C-6.02 5 -4.04 5 -2 5 C-1.34 3.35 -0.68 1.7 0 0 Z " fill="#FEF100" transform="translate(375,321)"/>
<path d="M0 0 C2.0625 0.4375 2.0625 0.4375 4 1 C4.33 2.98 4.66 4.96 5 7 C6.65 7 8.3 7 10 7 C10.6875 8.8125 10.6875 8.8125 11 11 C10.525625 11.433125 10.05125 11.86625 9.5625 12.3125 C7.60137236 14.06873485 7.60137236 14.06873485 7.8125 17.6875 C7.874375 18.780625 7.93625 19.87375 8 21 C6.1875 21.625 6.1875 21.625 4 22 C3.01 21.34 2.02 20.68 1 20 C0.34 20.66 -0.32 21.32 -1 22 C-3.125 21.625 -3.125 21.625 -5 21 C-4.67 18.36 -4.34 15.72 -4 13 C-4.99 12.67 -5.98 12.34 -7 12 C-7.75 10 -7.75 10 -8 8 C-7 7 -7 7 -4.4375 6.9375 C-3.2309375 6.9684375 -3.2309375 6.9684375 -2 7 C-1.855625 6.030625 -1.71125 5.06125 -1.5625 4.0625 C-1 1 -1 1 0 0 Z " fill="#FFF100" transform="translate(625,65)"/>
<path d="M0 0 C1.32 0.66 2.64 1.32 4 2 C4 2.99 4 3.98 4 5 C5.32 5.33 6.64 5.66 8 6 C8 9.20667151 7.80811163 11.03692403 7 14 C6.65939189 15.66519519 6.32441604 17.33157466 6 19 C5.0925 18.814375 4.185 18.62875 3.25 18.4375 C0.31685676 18.04265379 -1.2644657 18.05308428 -4 19 C-5.14444752 14.58570242 -6 10.58489326 -6 6 C-4.68 5.67 -3.36 5.34 -2 5 C-1.855625 4.360625 -1.71125 3.72125 -1.5625 3.0625 C-1 1 -1 1 0 0 Z " fill="#FFF200" transform="translate(834,364)"/>
<path d="M0 0 C0.66 0 1.32 0 2 0 C1.68955976 2.39611639 1.37671642 4.79187835 1.0625 7.1875 C0.97548828 7.86103516 0.88847656 8.53457031 0.79882812 9.22851562 C0.32174523 12.85081166 -0.23012035 16.42803585 -1 20 C-2.82752503 16.82430077 -3.41030589 14.13672513 -3.75 10.5 C-3.84796875 9.5615625 -3.9459375 8.623125 -4.046875 7.65625 C-3.99720163 4.84142593 -3.4557365 3.37397029 -2 1 C-1.67 1.33 -1.34 1.66 -1 2 C-0.67 1.34 -0.34 0.68 0 0 Z " fill="#0E0E0E" transform="translate(809,238)"/>
<path d="M0 0 C0.66 0.33 1.32 0.66 2 1 C2.24794402 7.5705166 1.32388229 13.56971459 0 20 C-2.77711773 15.8343234 -3.08991513 11.96031798 -3 7 C-2.2763841 4.37457308 -1.31162187 2.41338423 0 0 Z " fill="#090909" transform="translate(611,237)"/>
<path d="M0 0 C2.84614024 2.84614024 2.45579076 5.80369142 2.625 9.625 C2.66367187 10.33140625 2.70234375 11.0378125 2.7421875 11.765625 C2.83647724 13.50998524 2.91932891 15.25495691 3 17 C1.35 17.33 -0.3 17.66 -2 18 C-1.85860519 15.74971671 -1.71171997 13.49977794 -1.5625 11.25 C-1.48128906 9.99703125 -1.40007813 8.7440625 -1.31640625 7.453125 C-1.07484478 4.81682447 -0.75716066 2.51962706 0 0 Z " fill="#060606" transform="translate(587,222)"/>
<path d="M0 0 C-0.66 4.62 -1.32 9.24 -2 14 C-2.66 14 -3.32 14 -4 14 C-5.10228696 9.59085217 -5.07654536 5.51617599 -5 1 C-3 0 -3 0 0 0 Z " fill="#121212" transform="translate(855,242)"/>
<path d="M0 0 C0.33 0 0.66 0 1 0 C1.24954005 1.43410368 1.47392642 2.87260072 1.6875 4.3125 C1.87892578 5.51326172 1.87892578 5.51326172 2.07421875 6.73828125 C2 9 2 9 0.51953125 10.79296875 C0.01808594 11.19128906 -0.48335937 11.58960938 -1 12 C-2.45606519 7.47907032 -1.27032841 4.48351204 0 0 Z " fill="#131212" transform="translate(829,223)"/>
<path d="M0 0 C0.99 0 1.98 0 3 0 C4.20272819 2.40545638 4.10071472 3.94996953 4.0625 6.625 C4.05347656 7.44226563 4.04445313 8.25953125 4.03515625 9.1015625 C4.02355469 9.72804687 4.01195312 10.35453125 4 11 C1.55160412 7.32740617 0 4.45351799 0 0 Z " fill="#0F0E0E" transform="translate(981,238)"/>
<path d="M0 0 C2 2 2 2 2.1953125 3.9453125 C2.13020833 5.96354167 2.06510417 7.98177083 2 10 C1.01 10.33 0.02 10.66 -1 11 C-1.14285714 3.57142857 -1.14285714 3.57142857 0 0 Z " fill="#191818" transform="translate(587,222)"/>
<path d="M0 0 C0.66 0.33 1.32 0.66 2 1 C1.67 3.97 1.34 6.94 1 10 C0.34 9.67 -0.32 9.34 -1 9 C-1.125 2.25 -1.125 2.25 0 0 Z " fill="#1F1E1F" transform="translate(565,247)"/>
<path d="M0 0 C-2.43840236 2.43840236 -4.85240898 3.62292893 -8 5 C-8.66 4.67 -9.32 4.34 -10 4 C-4.7704918 -1.59016393 -4.7704918 -1.59016393 0 0 Z " fill="#191A1A" transform="translate(330,231)"/>
<path d="M0 0 C0.99 0.33 1.98 0.66 3 1 C2.67 3.97 2.34 6.94 2 10 C-0.4294516 6.3558226 -0.16179575 4.28758728 0 0 Z " fill="#1F1E1F" transform="translate(609,247)"/>
</svg>
